<svg width="147" height="40" viewBox="0 0 147 40" fill="none" xmlns="http://www.w3.org/2000/svg">
<g id="Layer 2">
<g id="landing section">
<path id="Vector" d="M52.8459 5.19059H42.6771C42.0903 5.19059 41.5274 5.42602 41.1125 5.8451C40.6975 6.26418 40.4643 6.83256 40.4643 7.42523V20.701C40.4643 21.2937 40.6975 21.8621 41.1125 22.2811C41.5274 22.7002 42.0903 22.9356 42.6771 22.9356H50.3917C50.9786 22.9356 51.5414 23.1711 51.9564 23.5901C52.3714 24.0092 52.6045 24.5776 52.6045 25.1703V25.2515C52.6019 25.8434 52.3679 26.4102 51.9535 26.8287C51.5391 27.2472 50.9778 27.4835 50.3917 27.4862H42.6771C42.3862 27.4848 42.0978 27.5417 41.8288 27.6535C41.5597 27.7654 41.3152 27.9299 41.1095 28.1377C40.9037 28.3455 40.7408 28.5923 40.6301 28.8641C40.5193 29.1358 40.463 29.427 40.4643 29.7208V33.1642C40.4643 33.7568 40.6975 34.3252 41.1125 34.7443C41.5274 35.1634 42.0903 35.3988 42.6771 35.3988H52.8459C53.1365 35.3988 53.4243 35.4566 53.6927 35.5689C53.9612 35.6812 54.2051 35.8458 54.4106 36.0533C54.6161 36.2608 54.7791 36.5072 54.8903 36.7783C55.0015 37.0494 55.0587 37.34 55.0587 37.6335C55.0575 37.9335 54.9968 38.2302 54.8801 38.5061C54.7634 38.782 54.5932 39.0315 54.3794 39.2398C54.1656 39.4481 53.9126 39.6111 53.6354 39.719C53.3582 39.8269 53.0624 39.8776 52.7655 39.8681L37.6782 39.2993C37.1072 39.2783 36.5663 39.035 36.1688 38.6204C35.7713 38.2057 35.5481 37.6519 35.5459 37.0748V2.23478C35.5468 1.9303 35.6091 1.62919 35.7288 1.34977C35.8486 1.07035 36.0235 0.818466 36.2427 0.609431C36.4619 0.400396 36.7209 0.238584 37.004 0.133839C37.2871 0.0290935 37.5884 -0.0163957 37.8894 0.000138534L52.9264 0.558798C53.4984 0.582336 54.0393 0.827808 54.4365 1.24408C54.8337 1.66036 55.0566 2.21534 55.0587 2.79343V2.95595C55.0587 3.54862 54.8256 4.117 54.4106 4.53608C53.9956 4.95516 53.4328 5.19059 52.8459 5.19059Z" fill="white"/>
<path id="Vector_2" d="M61.2041 14.6573C61.2081 11.7659 62.0611 8.94078 63.6553 6.53912C65.2494 4.13745 67.5131 2.2672 70.1599 1.16492C72.8067 0.0626479 75.7178 -0.222126 78.5249 0.346623C81.332 0.915373 83.9091 2.31209 85.93 4.36011C87.951 6.40813 89.3251 9.01543 89.8785 11.8522C90.432 14.689 90.1398 17.6278 89.0391 20.2969C87.9385 22.966 86.0786 25.2455 83.6949 26.847C81.3112 28.4485 78.5107 29.3001 75.6477 29.2941C73.7474 29.2915 71.8663 28.9107 70.1119 28.1735C68.3574 27.4364 66.764 26.3574 65.4226 24.9981C64.0813 23.6388 63.0184 22.0259 62.2945 20.2515C61.5707 18.4772 61.2002 16.5762 61.2041 14.6573ZM66.0723 14.6573C66.0723 20.0407 69.9145 24.7436 75.6477 24.7436C81.3808 24.7436 85.2733 20.0407 85.2733 14.6573C85.3122 13.3528 85.0925 12.0536 84.6271 10.8361C84.1617 9.61858 83.46 8.50732 82.5632 7.56761C81.6664 6.62791 80.5926 5.87873 79.405 5.3641C78.2174 4.84948 76.9399 4.5798 75.6477 4.57091C69.9145 4.57091 66.0723 9.33475 66.0723 14.6573Z" fill="white"/>
<path id="Vector_3" d="M112.46 39.9492H99.8368C99.5459 39.9505 99.2575 39.8936 98.9885 39.7818C98.7194 39.67 98.4749 39.5054 98.2692 39.2977C98.0635 39.0899 97.9005 38.843 97.7898 38.5713C97.679 38.2996 97.6227 38.0084 97.624 37.7145V2.87453C97.624 2.28187 97.8572 1.71348 98.2722 1.2944C98.6871 0.875327 99.25 0.639893 99.8368 0.639893H100.279C100.865 0.642579 101.425 0.879198 101.838 1.29798C102.25 1.71677 102.482 2.28362 102.482 2.87453V33.164C102.485 33.7559 102.719 34.3227 103.133 34.7412C103.548 35.1597 104.109 35.396 104.695 35.3986H112.46C112.751 35.3973 113.039 35.4542 113.308 35.566C113.577 35.6778 113.822 35.8424 114.027 36.0502C114.233 36.2579 114.396 36.5048 114.507 36.7765C114.618 37.0483 114.674 37.3395 114.673 37.6333V37.7145C114.674 38.0084 114.618 38.2996 114.507 38.5713C114.396 38.843 114.233 39.0899 114.027 39.2977C113.822 39.5054 113.577 39.67 113.308 39.7818C113.039 39.8936 112.751 39.9505 112.46 39.9492Z" fill="white"/>
<path id="Vector_4" d="M118.063 14.6572C118.069 11.7683 118.923 8.94614 120.517 6.54748C122.111 4.14883 124.374 2.28146 127.019 1.18151C129.664 0.0815639 132.573 -0.201561 135.377 0.367941C138.182 0.937443 140.756 2.33399 142.775 4.38099C144.793 6.42799 146.165 9.03349 146.718 11.868C147.27 14.7026 146.977 17.6388 145.877 20.3055C144.777 22.9721 142.918 25.2494 140.537 26.8494C138.155 28.4493 135.357 29.3001 132.496 29.2941C130.597 29.2901 128.717 28.9083 126.963 28.1706C125.21 27.4328 123.618 26.3536 122.277 24.9944C120.937 23.6353 119.875 22.0228 119.152 20.2492C118.429 18.4755 118.059 16.5753 118.063 14.6572ZM122.921 14.6572C122.921 20.0406 126.763 24.7435 132.496 24.7435C138.229 24.7435 142.132 20.0406 142.132 14.6572C142.171 13.3519 141.951 12.0519 141.485 10.8337C141.019 9.61551 140.316 8.50379 139.418 7.56395C138.52 6.6241 137.445 5.87513 136.256 5.36111C135.068 4.84708 133.789 4.5784 132.496 4.57086C126.733 4.57086 122.921 9.3347 122.921 14.6572Z" fill="white"/>
<path id="Vector_5" d="M85.4638 35.3987H65.8202C64.5981 35.3987 63.6074 36.3992 63.6074 37.6333V37.7146C63.6074 38.9487 64.5981 39.9492 65.8202 39.9492H85.4638C86.6859 39.9492 87.6766 38.9487 87.6766 37.7146V37.6333C87.6766 36.3992 86.6859 35.3987 85.4638 35.3987Z" fill="white"/>
<path id="Vector_6" d="M142.323 35.3987H122.68C121.458 35.3987 120.467 36.3992 120.467 37.6333V37.7146C120.467 38.9487 121.458 39.9492 122.68 39.9492H142.323C143.545 39.9492 144.536 38.9487 144.536 37.7146V37.6333C144.536 36.3992 143.545 35.3987 142.323 35.3987Z" fill="white"/>
<path id="Vector_7" d="M18.7483 17.3185C22.3702 17.3185 25.3063 14.3535 25.3063 10.6959C25.3063 7.0383 22.3702 4.07324 18.7483 4.07324C15.1265 4.07324 12.1904 7.0383 12.1904 10.6959C12.1904 14.3535 15.1265 17.3185 18.7483 17.3185Z" fill="#F7931E"/>
<path id="Vector_8" d="M24.1396 0.690674H24.5822C24.8728 0.690674 25.1605 0.748474 25.429 0.860775C25.6974 0.973076 25.9414 1.13768 26.1468 1.34518C26.3523 1.55269 26.5153 1.79903 26.6265 2.07015C26.7377 2.34127 26.795 2.63185 26.795 2.92531V37.7653C26.7963 38.0592 26.74 38.3503 26.6292 38.6221C26.5185 38.8938 26.3556 39.1407 26.1498 39.3485C25.9441 39.5562 25.6996 39.7208 25.4305 39.8326C25.1615 39.9444 24.8731 40.0013 24.5822 40H24.1396C23.5527 40 22.9899 39.7645 22.5749 39.3455C22.1599 38.9264 21.9268 38.358 21.9268 37.7653V23.6668C21.9273 23.3259 21.8504 22.9893 21.7023 22.683C21.5541 22.3767 21.3384 22.1086 21.0719 21.8994L8.42876 16.3738C8.10323 16.1164 7.71254 15.9567 7.30138 15.913C6.89022 15.8694 6.47518 15.9434 6.10374 16.1267C5.73229 16.31 5.41943 16.5952 5.20093 16.9497C4.98243 17.3041 4.86712 17.7135 4.86817 18.131V37.7653C4.86817 38.358 4.63504 38.9264 4.22006 39.3455C3.80508 39.7645 3.24225 40 2.65538 40H2.21282C1.92186 40.0013 1.63352 39.9444 1.36445 39.8326C1.09538 39.7208 0.850909 39.5562 0.645167 39.3485C0.439424 39.1407 0.276481 38.8938 0.16575 38.6221C0.055018 38.3503 -0.00130858 38.0592 2.30714e-05 37.7653V10.2387C-0.000524376 9.82016 0.115315 9.40991 0.334348 9.05463C0.553381 8.69936 0.866805 8.41334 1.23893 8.22915C1.61105 8.04495 2.02691 7.96999 2.43915 8.0128C2.8514 8.05561 3.24345 8.21446 3.57067 8.47127L18.3461 15.0127C18.676 15.2717 19.0718 15.4311 19.4877 15.4725C19.9036 15.5138 20.3226 15.4353 20.6962 15.2461C21.0698 15.057 21.3827 14.7649 21.5987 14.4036C21.8147 14.0423 21.925 13.6266 21.9168 13.2046V2.92531C21.9194 2.33172 22.1548 1.76335 22.5714 1.34456C22.9879 0.925777 23.5518 0.690668 24.1396 0.690674Z" fill="white"/>
<path id="Vector_9" d="M12.7338 25.0686H14.2425C14.816 25.0686 15.3661 25.2987 15.7716 25.7082C16.1772 26.1178 16.405 26.6733 16.405 27.2525V37.1966H10.5713V27.2525C10.5713 26.9657 10.6272 26.6817 10.7359 26.4167C10.8446 26.1518 11.0039 25.911 11.2047 25.7082C11.4055 25.5054 11.6439 25.3446 11.9062 25.2348C12.1686 25.1251 12.4498 25.0686 12.7338 25.0686Z" fill="white"/>
</g>
</g>
</svg>
